<?xml version="1.0" encoding="utf-8"?>
<!-- Generator: Adobe Illustrator 16.0.0, SVG Export Plug-In . SVG Version: 6.00 Build 0)  -->
<!DOCTYPE svg PUBLIC "-//W3C//DTD SVG 1.1//EN" "http://www.w3.org/Graphics/SVG/1.1/DTD/svg11.dtd">
<svg version="1.1" id="Layer_1" xmlns="http://www.w3.org/2000/svg" xmlns:xlink="http://www.w3.org/1999/xlink" x="0px" y="0px"
	 width="250px" height="50px" viewBox="0 0 250 50" enable-background="new 0 0 250 50" xml:space="preserve">
<g>
	<polyline fill-rule="evenodd" clip-rule="evenodd" fill="#FFFFFF" points="-10.744,-110.744 261.5,-110.744 261.5,161.5 
		-10.744,161.5 -10.744,-110.744 -10.744,-110.744 	"/>
	<path fill-rule="evenodd" clip-rule="evenodd" fill="#666666" d="M27.068,15.813c3.965-2.706,8.183-3.759,11.685-3.246V6.273H8.864
		v30.169h10.22c-0.119-0.208-0.235-0.423-0.339-0.646C15.915,29.826,19.639,20.879,27.068,15.813L27.068,15.813z"/>
	<path fill-rule="evenodd" clip-rule="evenodd" fill="#F26F28" d="M38.588,16.012c-7.884,0-14.274,6.392-14.274,14.276
		c0,0.896,0.084,1.772,0.243,2.623c0.355,1.542,1.177,2.021,1.936,2.348c0.374,0.16,0.7,0.223,0.883,0.245
		c1.51,0.112,3.088-0.259,4.577-1.184c2.021-1.258,3.52-3.306,4.325-5.635c-2.505,0.289-4.935,0.665-7.262,1.112l0.045-4.477
		l16.031-1.069l-0.112,15.12L40.136,39.7c0-0.008,0.005-0.013,0.005-0.021c0.023-0.159,0.049-0.318,0.073-0.475
		c0.187-1.269,0.347-2.562,0.477-3.879c0.073-0.757,0.141-1.515,0.195-2.282c-0.611,0.801-1.308,1.562-2.086,2.261
		c-0.72,0.647-1.506,1.247-2.358,1.784c-0.501,0.313-1.02,0.606-1.559,0.874c-1.098,0.542-2.211,0.955-3.327,1.242
		c-0.914,0.232-2.521,0.344-3.786,0.393c2.62,3.04,6.493,4.963,10.818,4.963c7.882,0,14.272-6.39,14.272-14.271
		C52.86,22.404,46.47,16.012,38.588,16.012L38.588,16.012z"/>
	<path fill-rule="evenodd" clip-rule="evenodd" fill="#2D2E2F" d="M84.21,14.468c-0.723-3.453-3.734-4.374-6.824-4.374
		c-7.102,0-9.672,6.221-9.51,11.639c0.32,7.423,2.567,11.477,10.875,11.637c1.967,0,3.934-0.32,5.78-0.922v-8.189h-6.583v-3.45
		h10.596v14.328c-3.332,1.002-6.661,1.685-9.952,1.685c-4.095,0-7.424-0.522-10.597-3.33c-3.209-2.81-4.334-7.667-4.334-11.759
		c0-3.011,1.004-6.301,2.49-8.91c2.527-4.416,6.78-6.181,11.717-6.181c4.897,0,10.315,2.247,10.555,7.826H84.21L84.21,14.468z"/>
	<path fill-rule="evenodd" clip-rule="evenodd" fill="#2D2E2F" d="M96.611,26.867c-0.283,3.532,1.163,7.186,5.057,7.186
		c2.969,0,4.456-1.165,4.896-4.095h4.015c-0.603,4.574-4.135,6.863-8.952,6.863c-6.46,0-9.03-4.574-9.03-10.514
		c0-5.901,2.969-10.837,9.353-10.837c6.017,0.121,8.868,3.934,8.868,9.512v1.885H96.611L96.611,26.867z M106.803,24.22
		c0.082-3.371-1.443-5.979-5.135-5.979c-3.172,0-5.057,2.688-5.057,5.979H106.803L106.803,24.22z"/>
	<path fill-rule="evenodd" clip-rule="evenodd" fill="#2D2E2F" d="M133.574,26.146c0,6.263-3.413,10.676-10.033,10.676
		c-6.623,0-10.035-4.413-10.035-10.676c0-6.259,3.412-10.675,10.035-10.675C130.161,15.47,133.574,19.886,133.574,26.146
		L133.574,26.146z M123.541,34.053c4.535,0,6.02-3.613,6.02-7.907c0-4.293-1.484-7.905-6.02-7.905c-4.538,0-6.021,3.612-6.021,7.905
		C117.52,30.439,119.003,34.053,123.541,34.053L123.541,34.053z"/>
	<polygon fill-rule="evenodd" clip-rule="evenodd" fill="#2D2E2F" points="137.827,12.862 128.959,12.862 128.959,7.242 
		154.923,7.242 154.923,12.862 145.853,12.862 145.853,36.219 137.827,36.219 137.827,12.862 	"/>
	<path fill-rule="evenodd" clip-rule="evenodd" fill="#2D2E2F" d="M159.177,19.846h0.08c0.886-3.333,3.374-4.456,6.743-4.375v6.461
		c-0.562-0.039-1.081-0.039-1.605-0.039c-3.974,0.039-5.336,2.408-5.218,6.259v8.067h-7.625V21.25c0-1.807-0.041-3.009-0.24-5.177
		h7.747L159.177,19.846L159.177,19.846z"/>
	<path fill-rule="evenodd" clip-rule="evenodd" fill="#2D2E2F" d="M183.217,34.013c-1.727,2.007-3.732,2.809-6.3,2.809
		c-4.336,0-7.546-2.809-7.546-7.264V16.073h7.626v11.838c0.078,1.967,0.561,4.093,2.93,4.093c3.771,0,3.29-4.133,3.29-4.372V16.073
		h7.626v14.969c0,1.808,0.041,3.011,0.239,5.177h-7.743L183.217,34.013L183.217,34.013z"/>
	<path fill-rule="evenodd" clip-rule="evenodd" fill="#2D2E2F" d="M206.774,22.294c0-0.683-0.121-1.285-0.481-1.686
		c-0.401-0.443-1.042-0.722-2.085-0.722c-1.123,0-1.807,0.641-1.807,1.805c0,1.483,3.09,1.406,7.864,2.889
		c2.408,0.761,4.053,2.248,4.053,5.54c0,5.335-5.014,6.701-9.632,6.701c-4.934,0-9.749-1.003-9.71-7.144h7.223
		c-0.118,0.603,0.08,1.285,0.521,1.806s1.084,0.925,1.809,0.925c1.483,0,2.565-0.564,2.565-1.845c0-3.576-11.919-1.448-11.919-8.754
		c0-4.975,5.299-6.339,9.312-6.339c4.776,0,9.19,1.244,9.513,6.824H206.774L206.774,22.294z"/>
	<path fill-rule="evenodd" clip-rule="evenodd" fill="#2D2E2F" d="M220.26,16.073v-3.05l7.626-2.89v5.94h4.412v4.814h-4.412v7.986
		c0,0.522-0.322,3.131,1.444,3.131c1.004,0,2.046,0,2.929-0.118v4.534c-1.724,0.32-2.968,0.401-4.094,0.401
		c-5.176,0-8.307-0.723-7.905-6.902v-9.032h-3.934v-4.814H220.26L220.26,16.073z"/>
	<path fill-rule="evenodd" clip-rule="evenodd" fill="#2D2E2F" d="M241.562,18.125c0,0.768-0.269,1.42-0.812,1.958
		c-0.54,0.54-1.193,0.807-1.955,0.807c-0.768,0-1.422-0.267-1.964-0.807c-0.542-0.538-0.812-1.19-0.812-1.958
		c0-0.771,0.27-1.431,0.812-1.975c0.542-0.544,1.196-0.815,1.964-0.815c0.762,0,1.415,0.271,1.955,0.815
		C241.294,16.694,241.562,17.354,241.562,18.125L241.562,18.125z M240.905,18.125c0-0.582-0.206-1.093-0.621-1.531
		c-0.414-0.438-0.913-0.657-1.497-0.657c-0.585,0-1.081,0.22-1.493,0.657c-0.413,0.438-0.618,0.949-0.618,1.531
		c0,0.583,0.205,1.092,0.618,1.53c0.412,0.438,0.908,0.657,1.493,0.657c0.584,0,1.083-0.218,1.497-0.657
		C240.699,19.217,240.905,18.707,240.905,18.125L240.905,18.125z M239.135,19.577c0-0.164,0-0.339,0-0.527
		c0-0.211-0.037-0.39-0.118-0.54c-0.08-0.149-0.188-0.225-0.321-0.225c-0.035,0-0.104,0-0.202,0c0,0.521,0,0.95,0,1.292
		c-0.101,0-0.218,0-0.355,0c-0.137,0-0.257,0-0.359,0v-2.974c0.608,0,0.993,0,1.154,0c0.309,0,0.542,0.061,0.694,0.182
		c0.156,0.122,0.234,0.276,0.234,0.466c0,0.022,0,0.066,0,0.132c0,0.067,0,0.107,0,0.124c0,0.163-0.045,0.297-0.134,0.4
		c-0.089,0.106-0.199,0.173-0.335,0.206c0.21,0.107,0.352,0.255,0.43,0.442c0.078,0.188,0.117,0.366,0.117,0.536
		c0,0.044,0,0.21,0,0.486H239.135L239.135,19.577z M239.206,17.535c0-0.02,0-0.039,0-0.054c0-0.018,0-0.037,0-0.061
		c0-0.093-0.029-0.171-0.083-0.237c-0.054-0.067-0.123-0.1-0.205-0.1c-0.024,0-0.091,0-0.196,0c-0.106,0-0.184,0-0.229,0v0.801
		c0.209,0,0.352,0,0.425,0c0.099,0,0.172-0.028,0.217-0.084C239.181,17.744,239.206,17.654,239.206,17.535L239.206,17.535z"/>
	<path fill-rule="evenodd" clip-rule="evenodd" fill="#FFFFFF" d="M58.271,31.063c0,8.946-8.387,16.204-18.722,16.204
		S20.828,40.01,20.828,31.063c0-8.947,8.386-16.208,18.721-16.208S58.271,22.117,58.271,31.063L58.271,31.063z"/>
	<path fill-rule="evenodd" clip-rule="evenodd" fill="#999999" d="M38.674,16.012c-7.884,0-14.273,6.392-14.273,14.276
		c0,0.896,0.084,1.772,0.242,2.623c0.356,1.542,1.177,2.021,1.937,2.348c0.374,0.16,0.7,0.223,0.883,0.245
		c1.51,0.112,3.088-0.259,4.576-1.184c2.022-1.258,3.52-3.306,4.325-5.635c-2.504,0.289-4.933,0.665-7.261,1.112l0.044-4.477
		l16.031-1.069l-0.112,15.12L40.222,39.7c0-0.008,0.005-0.013,0.005-0.021c0.023-0.159,0.049-0.318,0.073-0.475
		c0.188-1.269,0.347-2.562,0.477-3.879c0.074-0.757,0.141-1.515,0.195-2.282c-0.611,0.801-1.309,1.562-2.086,2.261
		c-0.718,0.647-1.505,1.247-2.358,1.784c-0.501,0.313-1.019,0.606-1.559,0.874c-1.097,0.542-2.212,0.955-3.328,1.242
		c-0.914,0.232-2.52,0.344-3.786,0.393c2.62,3.04,6.493,4.963,10.818,4.963c7.882,0,14.272-6.39,14.272-14.271
		C52.946,22.404,46.556,16.012,38.674,16.012L38.674,16.012z"/>
</g>
</svg>
